<?xml version="1.0" encoding="UTF-8" standalone="no"?>
<svg
   xmlns:dc="http://purl.org/dc/elements/1.1/"
   xmlns:cc="http://creativecommons.org/ns#"
   xmlns:rdf="http://www.w3.org/1999/02/22-rdf-syntax-ns#"
   xmlns:svg="http://www.w3.org/2000/svg"
   xmlns="http://www.w3.org/2000/svg"
   xmlns:sodipodi="http://sodipodi.sourceforge.net/DTD/sodipodi-0.dtd"
   xmlns:inkscape="http://www.inkscape.org/namespaces/inkscape"
   width="10.31875mm"
   height="9.7895832mm"
   viewBox="0 0 10.318751 9.7895832"
   version="1.1"
   id="svg8"
   inkscape:version="1.0.1 (3bc2e813f5, 2020-09-07)"
   sodipodi:docname="clarivate.svg">
  <defs
     id="defs2" />
  <sodipodi:namedview
     id="base"
     pagecolor="#ffffff"
     bordercolor="#666666"
     borderopacity="1.0"
     inkscape:pageopacity="0.0"
     inkscape:pageshadow="2"
     inkscape:zoom="11.2"
     inkscape:cx="26.964237"
     inkscape:cy="30.55626"
     inkscape:document-units="mm"
     inkscape:current-layer="layer1"
     inkscape:document-rotation="0"
     showgrid="false"
     inkscape:window-width="1267"
     inkscape:window-height="967"
     inkscape:window-x="1331"
     inkscape:window-y="176"
     inkscape:window-maximized="0"
     inkscape:snap-nodes="false" />
  <metadata
     id="metadata5">
    <rdf:RDF>
      <cc:Work
         rdf:about="">
        <dc:format>image/svg+xml</dc:format>
        <dc:type
           rdf:resource="http://purl.org/dc/dcmitype/StillImage" />
        <dc:title></dc:title>
      </cc:Work>
    </rdf:RDF>
  </metadata>
  <g
     inkscape:label="Layer 1"
     inkscape:groupmode="layer"
     id="layer1"
     transform="translate(-123.57608,-154.60783)">
    <g
       id="g913"
       transform="matrix(0.00481335,0,0,0.00481335,125.37958,155.90258)">
      <path
         id="Layer"
         class="s0"
         d="m 1224.2,781.4 c 79.4,95.7 145.3,203 195,318.8 -214.2,223.1 -490.1,386.3 -800.4,462.4 -31.4,-41.8 -60.5,-85.5 -86.8,-131.1 -36.7,-63.5 -67.3,-129.3 -92.5,-196.5 313.7,-53 589.7,-218.5 784.7,-453.6 z" />
      <path
         id="path909"
         class="s1"
         d="m 1419.2,462.6 c -49.7,115.9 -115.6,223.1 -195,318.8 C 1029.2,546.3 753.1,380.8 439.3,327.8 483.1,209.4 543.3,99.3 617.9,0 c 310.6,76 586.9,239.4 801.3,462.6 z" />
      <path
         id="path911"
         class="s2"
         d="m 222.2,1253.1 c -53,0 -105.1,-3.2 -156.4,-9.4 -89.4,-306.8 -86.1,-627.5 0.2,-924.6 51.2,-6.2 103.3,-9.4 156.2,-9.4 73.9,0 146.4,6.2 217.1,18.1 -14.1,38.1 -26.7,77 -37.3,116.7 -71,264.8 -56.9,538.8 37.5,790.5 -70.7,11.9 -143.3,18.1 -217.3,18.1 z" />
    </g>
  </g>
  <style
     type="text/css"
     id="style831">
	.st0{fill:#A6CE39;}
	.st1{fill:#FFFFFF;}
</style>
  <style
     id="style906">
		.s0 { fill: #16ab03 } 
		.s1 { fill: #5e33bf } 
		.s2 { fill: #000000 } 
	</style>
</svg>
