<?xml version="1.0" encoding="UTF-8" standalone="no"?>
<svg
   xmlns:dc="http://purl.org/dc/elements/1.1/"
   xmlns:cc="http://creativecommons.org/ns#"
   xmlns:rdf="http://www.w3.org/1999/02/22-rdf-syntax-ns#"
   xmlns:svg="http://www.w3.org/2000/svg"
   xmlns="http://www.w3.org/2000/svg"
   xmlns:sodipodi="http://sodipodi.sourceforge.net/DTD/sodipodi-0.dtd"
   xmlns:inkscape="http://www.inkscape.org/namespaces/inkscape"
   width="10.31875mm"
   height="9.7895832mm"
   viewBox="0 0 10.318751 9.7895832"
   version="1.1"
   id="svg8"
   inkscape:version="1.0.1 (3bc2e813f5, 2020-09-07)"
   sodipodi:docname="etsy.svg">
  <defs
     id="defs2">
    <style
       type="text/css"
       id="style855"><![CDATA[
    .fil0 {fill:#04D4AC;fill-rule:nonzero}
    .fil1 {fill:white;fill-rule:nonzero}
   ]]></style>
  </defs>
  <sodipodi:namedview
     id="base"
     pagecolor="#ffffff"
     bordercolor="#666666"
     borderopacity="1.0"
     inkscape:pageopacity="0.0"
     inkscape:pageshadow="2"
     inkscape:zoom="7.919596"
     inkscape:cx="31.731766"
     inkscape:cy="4.5815283"
     inkscape:document-units="mm"
     inkscape:current-layer="layer1"
     inkscape:document-rotation="0"
     showgrid="false"
     inkscape:window-width="1267"
     inkscape:window-height="967"
     inkscape:window-x="1331"
     inkscape:window-y="176"
     inkscape:window-maximized="0"
     inkscape:snap-nodes="false" />
  <metadata
     id="metadata5">
    <rdf:RDF>
      <cc:Work
         rdf:about="">
        <dc:format>image/svg+xml</dc:format>
        <dc:type
           rdf:resource="http://purl.org/dc/dcmitype/StillImage" />
        <dc:title></dc:title>
      </cc:Work>
    </rdf:RDF>
  </metadata>
  <g
     inkscape:label="Layer 1"
     inkscape:groupmode="layer"
     id="layer1"
     transform="translate(-123.57608,-154.60783)">
    <g
       id="g846"
       transform="matrix(0.00762386,0,0,0.00762386,124.83307,155.8376)">
      <circle
         cx="512"
         cy="512"
         r="512"
         style="fill:#f56400"
         id="circle832" />
      <path
         d="m 272.42,487.83 v -81.77 c 0,-3 0.3,-4.85 5.45,-4.85 h 69.35 c 12.12,0 18.78,10.3 23.63,29.68 l 3.94,15.45 h 11.81 c 2.12,-43.91 3.93,-63 3.93,-63 0,0 -29.68,3.33 -47.24,3.33 H 254.55 L 207,385.17 v 12.72 l 16.05,3 c 11.21,2.12 13.93,4.54 14.84,14.84 0,0 0.91,30.28 0.91,80.26 0,49.98 -0.91,80 -0.91,80 0,9.08 -3.64,12.41 -14.84,14.54 l -16.05,3 v 12.71 l 47.55,-1.51 h 79.35 c 17.87,0 59.36,1.51 59.36,1.51 0.91,-10.9 7,-60.27 7.88,-65.71 h -11.21 l -11.81,27 c -9.39,21.19 -23,22.71 -38.16,22.71 h -45.13 c -15.14,0 -22.41,-6.06 -22.41,-19.08 v -69.09 c 0,0 33,0 44.52,0.91 8.48,0.61 13.63,3 16.36,14.84 l 3.64,15.75 h 13 l -0.94,-39.68 1.82,-40 h -13 l -4.24,17.56 c -2.73,11.51 -4.54,13.63 -16.36,14.84 -13.32,1.52 -44.82,1.21 -44.82,1.21 v 0.3 z M 452,414.55 c -4.24,18.78 -8.48,33.31 -23.32,43 -9.08,6.05 -18.17,8.17 -21.8,8.48 v 11.51 h 27 v 93 c 0,26 17.27,38.77 40.28,38.77 17.87,0 36.34,-7.57 42.7,-23.32 l -6.36,-8.18 c -3,5.15 -12.71,12.72 -24.83,12.72 -13.32,0 -20.59,-9.09 -20.59,-32.1 v -82.1 l 44.83,3.33 2.42,-20.6 -47.33,1.82 v -46 l -13,-0.3 z m 95.7,143 -11.51,0.3 c 0.6,6.66 0.91,15.14 0.91,23 0,8.18 -0.3,15.75 -0.91,19.38 0,0 23,8.47 46.34,8.47 31.5,0 56.63,-15.14 56.63,-44.82 0,-50.87 -76.32,-43.3 -76.32,-77.53 0,-14.23 12.72,-19.68 26.65,-19.68 10.9,0 20,3.94 21.8,9.7 l 7.57,22.71 11.21,-0.6 c 0.91,-12.12 1.51,-26 3.33,-37.25 -9.69,-4.24 -30,-6.67 -42.7,-6.67 -29.69,0 -53.61,13 -53.61,42.1 0,50.57 74.5,40.28 74.5,77.53 0,13.32 -8.18,22.71 -26.65,22.71 -17,0 -25.44,-8.78 -28.76,-17.57 l -8.49,-21.8 z m 182.53,35 c -17.53,49 -39,61.66 -58.34,61.66 -8.17,0 -12.09,-3.63 -13.31,-9.36 l -4.53,-23.59 -12.7,0.6 c -2.42,13.91 -4.84,29.33 -8.16,42 7.56,5.74 20.25,8.77 30.23,8.77 20.86,0 52.6,-2.73 81.62,-71.65 l 48.67,-114.87 c 3.93,-9.37 5.44,-10.28 16.93,-14.82 L 817,468.9 v -10.58 l -28.72,1.51 -30.83,-1.51 v 10.58 l 7.86,2.41 c 7.86,2.42 11.49,5.44 11.49,10.89 0,2.72 -0.91,5.44 -2.43,9.67 -4.53,11.5 -32.65,79.81 -40.2,94.32 l 7.55,-2.73 c -13.3,-32.95 -33.55,-88 -36.57,-97.33 a 15.06,15.06 0 0 1 -0.91,-4.85 c 0,-4.83 3.32,-8.77 10.58,-10.28 l 10,-2.11 v -10.57 l -41.42,1.51 -32.95,-1.51 v 10.58 l 5.44,1.81 c 7.56,2.42 9.37,4.54 13.91,15.12 25.08,57.44 36.88,88.87 52.89,130 l 7.57,-23.28 z"
         style="fill:#ffffff"
         id="path834" />
    </g>
  </g>
</svg>
