<?xml version="1.0" encoding="UTF-8" standalone="no"?>
<svg
   xmlns:dc="http://purl.org/dc/elements/1.1/"
   xmlns:cc="http://creativecommons.org/ns#"
   xmlns:rdf="http://www.w3.org/1999/02/22-rdf-syntax-ns#"
   xmlns:svg="http://www.w3.org/2000/svg"
   xmlns="http://www.w3.org/2000/svg"
   xmlns:sodipodi="http://sodipodi.sourceforge.net/DTD/sodipodi-0.dtd"
   xmlns:inkscape="http://www.inkscape.org/namespaces/inkscape"
   width="10.31875mm"
   height="9.7895832mm"
   viewBox="0 0 10.318751 9.7895832"
   version="1.1"
   id="svg8"
   inkscape:version="1.0.1 (3bc2e813f5, 2020-09-07)"
   sodipodi:docname="github.svg">
  <defs
     id="defs2">
    <style
       type="text/css"
       id="style855"><![CDATA[
    .fil0 {fill:#04D4AC;fill-rule:nonzero}
    .fil1 {fill:white;fill-rule:nonzero}
   ]]></style>
  </defs>
  <sodipodi:namedview
     id="base"
     pagecolor="#ffffff"
     bordercolor="#666666"
     borderopacity="1.0"
     inkscape:pageopacity="0.0"
     inkscape:pageshadow="2"
     inkscape:zoom="5.6"
     inkscape:cx="46.842576"
     inkscape:cy="11.142158"
     inkscape:document-units="mm"
     inkscape:current-layer="layer1"
     inkscape:document-rotation="0"
     showgrid="false"
     inkscape:window-width="1267"
     inkscape:window-height="967"
     inkscape:window-x="1331"
     inkscape:window-y="176"
     inkscape:window-maximized="0"
     inkscape:snap-nodes="false" />
  <metadata
     id="metadata5">
    <rdf:RDF>
      <cc:Work
         rdf:about="">
        <dc:format>image/svg+xml</dc:format>
        <dc:type
           rdf:resource="http://purl.org/dc/dcmitype/StillImage" />
        <dc:title></dc:title>
      </cc:Work>
    </rdf:RDF>
  </metadata>
  <g
     inkscape:label="Layer 1"
     inkscape:groupmode="layer"
     id="layer1"
     transform="translate(-123.57608,-154.60783)">
    <path
       d="m 128.77685,155.76513 c -2.18389,0 -3.95473,1.7776 -3.95473,3.97089 0,1.75404 1.1331,3.24229 2.70496,3.76741 0.19774,0.0365 0.26992,-0.0861 0.26992,-0.19134 0,-0.0943 -0.003,-0.34395 -0.006,-0.67526 -1.10023,0.23998 -1.33233,-0.53231 -1.33233,-0.53231 -0.1797,-0.45861 -0.439,-0.5807 -0.439,-0.5807 -0.35916,-0.24644 0.0272,-0.24147 0.0272,-0.24147 0.39673,0.0281 0.6056,0.40922 0.6056,0.40922 0.35298,0.60677 0.92571,0.43156 1.15115,0.32982 0.0359,-0.25661 0.13817,-0.43157 0.25113,-0.53083 -0.87825,-0.10026 -1.80149,-0.44075 -1.80149,-1.96225 0,-0.43354 0.154,-0.78793 0.40712,-1.06562 -0.0407,-0.10051 -0.17649,-0.50403 0.0386,-1.05073 0,0 0.33221,-0.10672 1.08761,0.40699 0.31566,-0.0881 0.65381,-0.13203 0.99023,-0.13377 0.33592,0.002 0.67432,0.0457 0.99022,0.13377 0.75491,-0.51371 1.08639,-0.40699 1.08639,-0.40699 0.21579,0.5467 0.0801,0.95022 0.0393,1.05073 0.25361,0.27769 0.40663,0.63208 0.40663,1.06562 0,1.52522 -0.92473,1.861 -1.8057,1.95927 0.14188,0.12259 0.26845,0.3648 0.26845,0.73532 0,0.53082 -0.005,0.95891 -0.005,1.08919 0,0.10622 0.0712,0.22981 0.2719,0.19085 1.57038,-0.52612 2.70249,-2.01338 2.70249,-3.76692 0,-2.19329 -1.77084,-3.97089 -3.95522,-3.97089"
       id="Github-1"
       style="fill:#3e75c3;fill-rule:evenodd;stroke:none;stroke-width:0.164791" />
  </g>
</svg>
