<?xml version="1.0" encoding="UTF-8" standalone="no"?>
<svg
   xmlns:dc="http://purl.org/dc/elements/1.1/"
   xmlns:cc="http://creativecommons.org/ns#"
   xmlns:rdf="http://www.w3.org/1999/02/22-rdf-syntax-ns#"
   xmlns:svg="http://www.w3.org/2000/svg"
   xmlns="http://www.w3.org/2000/svg"
   xmlns:sodipodi="http://sodipodi.sourceforge.net/DTD/sodipodi-0.dtd"
   xmlns:inkscape="http://www.inkscape.org/namespaces/inkscape"
   width="10.31875mm"
   height="9.7895832mm"
   viewBox="0 0 10.318751 9.7895832"
   version="1.1"
   id="svg8"
   inkscape:version="1.0.1 (3bc2e813f5, 2020-09-07)"
   sodipodi:docname="iNat.svg">
  <defs
     id="defs2">
    <style
       type="text/css"
       id="style855"><![CDATA[
    .fil0 {fill:#04D4AC;fill-rule:nonzero}
    .fil1 {fill:white;fill-rule:nonzero}
   ]]></style>
  </defs>
  <sodipodi:namedview
     id="base"
     pagecolor="#ffffff"
     bordercolor="#666666"
     borderopacity="1.0"
     inkscape:pageopacity="0.0"
     inkscape:pageshadow="2"
     inkscape:zoom="11.2"
     inkscape:cx="23.553561"
     inkscape:cy="6.3996131"
     inkscape:document-units="mm"
     inkscape:current-layer="layer1"
     inkscape:document-rotation="0"
     showgrid="false"
     inkscape:window-width="1267"
     inkscape:window-height="967"
     inkscape:window-x="1331"
     inkscape:window-y="176"
     inkscape:window-maximized="0"
     inkscape:snap-nodes="false" />
  <metadata
     id="metadata5">
    <rdf:RDF>
      <cc:Work
         rdf:about="">
        <dc:format>image/svg+xml</dc:format>
        <dc:type
           rdf:resource="http://purl.org/dc/dcmitype/StillImage" />
        <dc:title></dc:title>
      </cc:Work>
    </rdf:RDF>
  </metadata>
  <g
     inkscape:label="Layer 1"
     inkscape:groupmode="layer"
     id="layer1"
     transform="translate(-123.57608,-154.60783)">
    <path
       style="fill:#73ab02;stroke:none;stroke-width:0.0114579"
       d="m 127.7707,156.20365 c 0.007,0.15603 0.0671,0.32021 0.10976,0.46977 0.11351,0.39781 0.27204,0.85548 0.56644,1.15726 0.27758,0.28456 0.65748,0.47871 0.96229,0.73645 0.19203,0.16239 0.37235,0.33455 0.54997,0.51246 0.0339,0.0339 0.13059,0.17633 0.18891,0.12995 0.0531,-0.0422 0.0326,-0.19606 0.0268,-0.25599 -0.0244,-0.25242 -0.11821,-0.50217 -0.21747,-0.73331 -0.32401,-0.75444 -0.8837,-1.31323 -1.59094,-1.71696 -0.18746,-0.10703 -0.3869,-0.23991 -0.59581,-0.29963 m -3.01344,0.80205 c 0.14423,0.62344 0.8726,1.02108 1.37495,1.33398 0.16998,0.10587 0.34313,0.2367 0.52707,0.31597 v 0.0114 c -0.33649,-0.003 -0.72114,-0.081 -1.04267,0.0573 0.35794,0.64293 1.21722,1.05937 1.91348,1.20308 v 0.0114 c -0.34008,3e-5 -0.67727,0.0806 -1.0083,0.14895 0.0906,0.14492 0.21686,0.2739 0.33038,0.40104 0.33747,0.37794 0.72773,0.72688 1.23935,0.82721 0.27118,0.0531 0.55201,0.0333 0.82498,0.007 0.0914,-0.008 0.26664,-0.045 0.33876,0.0296 0.0528,0.0547 0.006,0.13654 -0.025,0.18998 -0.0904,0.1561 -0.21495,0.2894 -0.33341,0.42394 -0.38004,0.43167 -0.88913,0.73577 -1.43551,0.9049 -0.16099,0.0498 -0.33332,0.0558 -0.4927,0.10346 0.11691,0.0884 0.31704,0.12197 0.45832,0.15381 0.37078,0.0835 0.75417,0.13641 1.13434,0.10024 0.36566,-0.0348 0.71864,-0.0931 1.06558,-0.22025 0.9369,-0.34351 1.7008,-1.06538 2.11619,-1.97016 0.2073,-0.45153 0.26908,-0.92955 0.37504,-1.40932 0.0675,-0.30557 0.15923,-0.64264 0.38477,-0.87081 0.0681,-0.0689 0.14072,-0.12362 0.21743,-0.18191 0.0222,-0.0169 0.0585,-0.0446 0.044,-0.0772 -0.0186,-0.0415 -0.097,-0.0507 -0.13549,-0.0603 -0.13937,-0.0351 -0.28121,-0.0568 -0.42394,-0.0721 -0.62149,-0.0665 -1.22799,0.0958 -1.62565,0.60918 -0.11088,0.14315 -0.19507,0.30493 -0.30694,0.44686 -0.0409,0.0519 -0.10129,0.12611 -0.17567,0.11781 -0.0747,-0.008 -0.14465,-0.0792 -0.19473,-0.12931 -0.11639,-0.11635 -0.22693,-0.23885 -0.34379,-0.35515 -0.36412,-0.36236 -0.78695,-0.6721 -1.22601,-0.93722 -0.73581,-0.44431 -1.55718,-0.7416 -2.3947,-0.92556 -0.38805,-0.0853 -0.7967,-0.0969 -1.18017,-0.1882 m 6.87477,1.66534 c 0.24127,-0.0364 0.30231,0.35115 0.0573,0.38348 -0.25475,0.0336 -0.31061,-0.34528 -0.0573,-0.38348 z"
       id="path912" />
  </g>
</svg>
