<?xml version="1.0" encoding="UTF-8" standalone="no"?>
<svg
   xmlns:dc="http://purl.org/dc/elements/1.1/"
   xmlns:cc="http://creativecommons.org/ns#"
   xmlns:rdf="http://www.w3.org/1999/02/22-rdf-syntax-ns#"
   xmlns:svg="http://www.w3.org/2000/svg"
   xmlns="http://www.w3.org/2000/svg"
   xmlns:sodipodi="http://sodipodi.sourceforge.net/DTD/sodipodi-0.dtd"
   xmlns:inkscape="http://www.inkscape.org/namespaces/inkscape"
   width="221.83371mm"
   height="104.76965mm"
   viewBox="0 0 221.83371 104.76965"
   version="1.1"
   id="svg8"
   inkscape:version="1.0.1 (3bc2e813f5, 2020-09-07)"
   sodipodi:docname="logo_header.svg">
  <defs
     id="defs2">
    <marker
       style="overflow:visible"
       id="marker1105"
       refX="0"
       refY="0"
       orient="auto"
       inkscape:stockid="Arrow1Lstart"
       inkscape:isstock="true">
      <path
         transform="matrix(0.8,0,0,0.8,10,0)"
         style="fill:#1e9273;fill-opacity:1;fill-rule:evenodd;stroke:none;stroke-width:1pt;stroke-opacity:1"
         d="M 0,0 5,-5 -12.5,0 5,5 Z"
         id="path1103" />
    </marker>
    <marker
       style="overflow:visible"
       id="Arrow1Lstart"
       refX="0"
       refY="0"
       orient="auto"
       inkscape:stockid="Arrow1Lstart"
       inkscape:isstock="true">
      <path
         transform="matrix(0.8,0,0,0.8,10,0)"
         style="fill-rule:evenodd;stroke:#000000;stroke-width:1pt"
         d="M 0,0 5,-5 -12.5,0 5,5 Z"
         id="path833" />
    </marker>
  </defs>
  <sodipodi:namedview
     id="base"
     pagecolor="#ffffff"
     bordercolor="#666666"
     borderopacity="1.0"
     inkscape:pageopacity="0.0"
     inkscape:pageshadow="2"
     inkscape:zoom="0.98994949"
     inkscape:cx="424.85234"
     inkscape:cy="237.27568"
     inkscape:document-units="mm"
     inkscape:current-layer="layer1"
     inkscape:document-rotation="0"
     showgrid="false"
     inkscape:window-width="1717"
     inkscape:window-height="1041"
     inkscape:window-x="1"
     inkscape:window-y="0"
     inkscape:window-maximized="0" />
  <metadata
     id="metadata5">
    <rdf:RDF>
      <cc:Work
         rdf:about="">
        <dc:format>image/svg+xml</dc:format>
        <dc:type
           rdf:resource="http://purl.org/dc/dcmitype/StillImage" />
        <dc:title />
      </cc:Work>
    </rdf:RDF>
  </metadata>
  <g
     inkscape:label="Layer 1"
     inkscape:groupmode="layer"
     id="layer1"
     transform="translate(-55.629761,161.68709)">
    <rect
       style="fill:#ffffff;fill-opacity:1;stroke-width:0"
       id="rect1439"
       width="221.83371"
       height="104.76965"
       x="55.629761"
       y="-161.68709" />
    <rect
       style="fill:#ffffff;fill-opacity:1;stroke:none;stroke-width:0"
       id="rect847"
       width="359.03958"
       height="182.03334"
       x="-21.525738"
       y="-175.68333" />
    <path
       style="fill:#1e9273;fill-opacity:1;stroke-width:0.264583;marker-start:url(#marker1105)"
       d="M -21.525741,-84.399393 V -175.41607 H 157.99405 337.51384 V -84.399393 6.6172762 H 157.99405 -21.525741 Z m 279.511701,-14.21988 c 1.19202,-13.565627 2.04584,-24.713637 1.98438,-24.765837 -0.0614,-0.0522 -12.11495,-1.11228 -26.7856,-2.35574 -14.67064,-1.24346 -26.74213,-2.32908 -26.82553,-2.41248 -0.0834,-0.0834 0.71763,-3.9655 1.78008,-8.62687 1.06245,-4.66137 1.88253,-8.52072 1.82241,-8.57634 -0.20671,-0.19122 -17.1948,-3.93411 -17.31417,-3.81474 -0.0657,0.0657 -1.09274,4.3971 -2.28233,9.62535 -1.18959,5.22825 -2.25045,9.60699 -2.35747,9.73053 -0.10702,0.12354 -9.61835,-0.57908 -21.13629,-1.56138 -12.31295,-1.0501 -21.02899,-1.68775 -21.15352,-1.54754 -0.22509,0.25342 -4.42921,49.250037 -4.23962,49.410337 0.20658,0.17466 111.75146,9.65216 113.08867,9.60866 l 1.23939,0.09064 z m -59.90754,17.97846 c -29.90453,-2.55523 -54.40427,-4.66715 -54.44387,-4.69315 -0.12706,-0.0834 3.78761,-45.334867 3.9346,-45.481847 0.16923,-0.16924 39.63343,3.1732 39.83398,3.37376 0.0765,0.0765 -0.01,0.80391 -0.19152,1.61646 -0.18184,0.81255 -0.28175,1.52231 -0.22201,1.57723 0.12623,0.11606 16.74707,3.86563 17.13528,3.86563 0.14306,0 0.52091,-1.16086 0.83966,-2.57969 0.31875,-1.41883 0.67451,-2.68159 0.79058,-2.80615 0.16045,-0.17219 51.72247,3.99203 52.05797,4.20427 0.0918,0.0581 -3.6313,44.248557 -3.79439,45.036257 -0.0937,0.45258 -0.29652,0.58786 -0.84585,0.56421 -0.3974,-0.0171 -25.18989,-2.12175 -55.09443,-4.67698 z m 50.73386,-2.07559 c 2.16498,-0.15679 2.18281,-0.16401 2.18281,-0.88368 0,-0.67698 -0.092,-0.7365 -1.37308,-0.88823 -0.7552,-0.0894 -1.54101,-0.33054 -1.74625,-0.53577 -0.32115,-0.32116 -0.2032,-2.59895 0.84637,-16.344547 0.67078,-8.78426 1.21844,-16.19614 1.21709,-16.47084 -0.003,-0.4553 -0.13695,-0.4813 -1.52382,-0.29415 -0.83674,0.11292 -2.94883,0.27814 -4.69355,0.36716 -2.70512,0.13802 -3.18492,0.22848 -3.25853,0.61436 -0.0635,0.33269 0.36733,0.65821 1.62684,1.22929 0.94223,0.42723 1.85328,1.03865 2.02457,1.35871 0.29525,0.55168 0.13925,4.11935 -0.4173,9.54293 l -0.15092,1.47094 -1.23665,-0.6029 c -6.05707,-2.95299 -13.53876,0.75347 -15.27838,7.568977 -0.65217,2.55509 -0.43995,6.29171 0.46926,8.26235 1.57793,3.42007 4.08545,5.0626 7.75164,5.07764 1.80208,0.007 2.43126,-0.12101 4.23334,-0.86398 1.16416,-0.47997 2.2579,-0.93027 2.43053,-1.00067 0.23071,-0.0941 0.27253,0.2725 0.15784,1.38372 l -0.15602,1.51172 2.3557,-0.17248 c 1.29564,-0.0949 3.33796,-0.24361 4.53851,-0.33055 z m -12.00992,-3.52289 c -2.02853,-0.48373 -3.69407,-2.37198 -4.20017,-4.76182 -0.28366,-1.33947 -0.19591,-4.53031 0.16515,-6.00536 0.61162,-2.49865 2.07543,-4.673327 3.72867,-5.539457 1.03733,-0.54344 3.03204,-0.46505 4.34548,0.17077 2.2623,1.09516 2.52352,2.642467 1.84667,10.938227 -0.3864,4.73587 -0.36558,4.69419 -2.58314,5.16978 -1.458,0.31268 -2.08605,0.31798 -3.30266,0.0279 z m -13.05935,0.66005 c 0,-0.52382 -0.20223,-0.66797 -1.30981,-0.93368 -0.7204,-0.17282 -1.4608,-0.49614 -1.64533,-0.71849 -0.27276,-0.32864 -0.12051,-3.23222 0.81385,-15.521027 1.45184,-19.09487 1.41345,-17.50311 0.4215,-17.47752 -0.684,0.0177 -5.4303,0.71839 -7.2099,1.06446 -0.40753,0.0793 -0.59335,0.30196 -0.58908,0.70604 0.005,0.45169 0.3154,0.7261 1.32309,1.1688 0.83998,0.36902 1.40546,0.81162 1.56157,1.22221 0.30537,0.80319 -1.72843,27.652907 -2.13143,28.138497 -0.15046,0.18129 -0.82938,0.40218 -1.5087,0.49087 -1.71868,0.22437 -2.42576,0.56147 -2.42576,1.15647 0,0.46023 0.27443,0.52643 2.84427,0.68614 1.56435,0.0972 4.33255,0.32274 6.15156,0.50117 1.81901,0.17842 3.39659,0.28191 3.50573,0.22996 0.10914,-0.0519 0.19844,-0.3732 0.19844,-0.7139 z m -14.4481,-0.56158 c 0.28201,-0.73492 0.18525,-0.85159 -1.09617,-1.32175 -2.18832,-0.8029 -2.0861,-0.13437 -1.42134,-9.29646 0.32505,-4.480057 0.65693,-8.693817 0.73751,-9.363897 0.13367,-1.11172 0.0925,-1.23246 -0.47069,-1.37973 -0.41223,-0.1078 -0.79528,0.005 -1.15347,0.33965 -0.87832,0.82061 -3.33773,2.00205 -5.23907,2.51672 -1.48366,0.4016 -1.77847,0.57413 -1.77327,1.03773 0.005,0.40997 0.34939,0.70676 1.31246,1.12976 0.99287,0.4361 1.35103,0.75226 1.49301,1.31797 0.31536,1.2565 -0.58219,11.734897 -1.04481,12.197517 -0.21771,0.21771 -1.15081,0.53091 -2.07355,0.696 -1.53149,0.274 -1.67772,0.35764 -1.67772,0.95956 v 0.6594 l 4.10104,0.19335 c 2.25557,0.10635 4.81542,0.30019 5.68854,0.43076 2.32166,0.34719 2.44161,0.34185 2.61753,-0.11658 z m -14.25919,-1.39817 c 0,-0.49783 -0.23819,-0.71458 -1.16301,-1.05833 -0.63965,-0.23775 -1.28877,-0.63253 -1.44248,-0.87728 -0.19912,-0.31703 -0.14206,-2.3128 0.19842,-6.94023 0.5337,-7.253527 0.43929,-8.318427 -0.90167,-10.169567 -1.15233,-1.59074 -2.82395,-2.27808 -5.55481,-2.28404 -2.65071,-0.006 -3.96018,0.51582 -6.08029,2.42198 -0.73042,0.65671 -1.32713,1.09369 -1.32601,0.97107 0.001,-0.12263 0.29785,-3.97343 0.65943,-8.55734 0.36158,-4.58391 0.65832,-8.53471 0.65943,-8.77957 0.003,-0.73406 -0.92968,-0.80585 -2.83075,-0.21781 -0.98859,0.30579 -2.72016,0.62748 -3.84795,0.71486 -1.88225,0.14583 -2.05052,0.20622 -2.05052,0.73588 0,0.43179 0.32607,0.72974 1.29555,1.18382 0.71256,0.33375 1.43865,0.87419 1.61354,1.20098 0.25467,0.47585 0.11101,3.32197 -0.72141,14.2919 -1.15896,15.273267 -0.93684,14.237537 -3.12361,14.565457 -0.92976,0.13943 -1.1512,0.28514 -1.25448,0.82546 -0.069,0.36096 0.009,0.69631 0.17259,0.74541 0.16391,0.0491 2.02443,0.16067 4.13448,0.24794 2.11006,0.0873 4.66132,0.27835 5.66948,0.42464 1.42714,0.20707 1.8811,0.1915 2.05019,-0.0703 0.42755,-0.66211 0.061,-1.06482 -1.55786,-1.71177 -0.98923,-0.39532 -1.70613,-0.85439 -1.80099,-1.15325 -0.2115,-0.66638 0.61371,-10.769337 0.92754,-11.355737 0.3977,-0.7431 2.12807,-2.15177 3.2933,-2.68102 1.28485,-0.58357 2.50533,-0.63015 3.66382,-0.13981 2.11393,0.89473 2.27771,1.83235 1.66825,9.550567 -0.4625,5.85706 -0.48291,5.91252 -2.34528,6.37212 -0.91176,0.22501 -1.13207,0.4 -1.19713,0.9508 l -0.0797,0.67503 3.65159,0.1972 c 2.00839,0.10847 4.24692,0.29223 4.97452,0.40836 2.11223,0.33713 2.64584,0.23884 2.64584,-0.48737 z m -32.05758,-2.21964 c 2.60097,-1.20929 4.31413,-2.92287 4.03481,-4.03577 l -0.16201,-0.64549 -1.78261,0.98535 c -1.59434,0.88128 -1.97986,0.98427 -3.65019,0.97504 -3.17642,-0.0175 -5.52602,-1.51488 -6.8343,-4.35531 -0.76924,-1.6701 -0.73586,-5.560877 0.0667,-7.780027 0.98571,-2.72547 2.68421,-4.38778 4.48535,-4.38981 1.18444,-0.001 1.7525,0.33196 3.66015,2.14753 2.25022,2.14161 3.14354,2.41458 4.39225,1.34213 0.589,-0.50586 0.61827,-2.35752 0.0501,-3.16871 -1.38988,-1.98432 -7.30318,-2.85105 -11.05301,-1.62007 -6.14857,2.01843 -9.22319,9.42499 -6.52528,15.718957 1.002,2.33756 3.61962,4.54671 6.29028,5.30871 2.04383,0.58314 5.20208,0.36629 7.02774,-0.48253 z m 43.9279,-23.315987 c 2.42513,-1.01329 2.68616,-4.15848 0.44146,-5.31926 -3.04792,-1.57614 -5.96896,2.29744 -3.55376,4.71264 0.58486,0.58486 0.92914,0.74333 2.03225,0.9354 0.11381,0.0198 0.59983,-0.12814 1.08005,-0.32878 z m -11.07249,-11.18413 c -3.49025,-0.79837 -6.38331,-1.48897 -6.42902,-1.53468 -0.0457,-0.0457 -0.005,-0.39481 0.0907,-0.77579 0.13473,-0.53681 0.33734,-0.69268 0.90041,-0.69268 1.02698,0 13.04663,1.04237 13.14415,1.13988 0.0443,0.0443 -0.0238,0.49053 -0.15123,0.99167 -0.12746,0.50114 -0.30509,1.23858 -0.39475,1.63877 -0.0896,0.40018 -0.30957,0.71788 -0.48869,0.706 -0.17913,-0.0119 -3.18135,-0.67481 -6.67161,-1.47317 z m 0.0134,-4.62641 c -3.04633,-0.27642 -5.56967,-0.53346 -5.60741,-0.57121 -0.0949,-0.0949 3.79338,-17.13153 3.94444,-17.28259 0.11272,-0.11271 13.18403,2.74926 13.35995,2.92518 0.0433,0.0433 -0.69955,3.47969 -1.6507,7.6365 -0.95115,4.15682 -1.72936,7.62517 -1.72936,7.70745 0,0.24116 -2.40603,0.12101 -8.31692,-0.41533 z M 83.458869,-77.513933 c -0.07096,-0.60132 -0.250822,-0.68399 -2.188292,-1.00589 -3.106367,-0.5161 -3.048402,-0.41413 -3.048402,-5.36289 v -4.1638 l 0.939572,0.47902 c 0.516766,0.26346 1.771195,0.61929 2.787621,0.79073 7.660759,1.29216 13.905941,-5.32944 12.696411,-13.461677 -0.53202,-3.57709 -1.987655,-5.90894 -4.565284,-7.31337 -1.164894,-0.63469 -1.799111,-0.7856 -3.68224,-0.87615 -2.742795,-0.1319 -4.512998,0.3178 -6.545527,1.66282 -0.776687,0.51398 -1.461297,0.9345 -1.521354,0.9345 -0.06006,0 -0.109199,-1.07157 -0.109199,-2.38125 0,-2.72702 -0.223039,-2.92996 -1.866826,-1.6986 -1.203217,0.90133 -3.542353,2.08408 -4.961803,2.50886 -0.94493,0.28278 -1.924031,1.15661 -1.593329,1.42202 0.04817,0.0387 0.741606,0.17729 1.540968,0.30806 1.326817,0.21708 1.468096,0.3069 1.62234,1.03153 0.220705,1.03686 0.281557,23.893277 0.06647,24.968687 -0.169643,0.84821 -0.253724,0.89212 -2.81147,1.46815 -0.527352,0.11877 -0.727607,0.32633 -0.727612,0.75414 l -1.1e-5,0.59027 h 7.02264 7.022639 z m -1.73876,-11.40401 c -1.535943,-0.2971 -2.559656,-1.08467 -3.070966,-2.36256 -0.345072,-0.86242 -0.426968,-2.12394 -0.426968,-6.57699 0,-6.145677 -0.09867,-5.804927 1.994156,-6.886607 1.836008,-0.94893 3.318799,-1.00309 4.996056,-0.18249 2.653914,1.29844 3.964054,3.96953 3.968935,8.091777 0.0033,2.75376 -0.598064,4.68584 -1.910511,6.13856 -1.518605,1.68092 -3.226147,2.22797 -5.550702,1.77831 z m 41.499941,11.46386 c 1.00927,-0.51121 1.6852,-1.09973 2.27272,-1.97883 0.45992,-0.68817 2.95813,-6.57544 5.55157,-13.0828 2.59343,-6.50737 4.95812,-12.191827 5.25484,-12.632137 0.37381,-0.55469 0.92375,-0.90909 1.79062,-1.15393 1.00377,-0.28351 1.25113,-0.46803 1.25113,-0.9333 0,-0.57538 -0.0374,-0.57994 -4.7625,-0.57994 -4.69705,0 -4.7625,0.008 -4.7625,0.56893 0,0.46854 0.24508,0.62643 1.38906,0.89486 1.94814,0.45712 2.31352,0.69624 2.32569,1.52208 0.0103,0.69978 -4.24522,12.485507 -4.5085,12.486317 -0.12373,2.7e-4 -4.7859,-12.305767 -4.98697,-13.163487 -0.12319,-0.52545 0.43317,-0.8445 1.48124,-0.84944 0.76073,-0.004 0.85988,-0.088 0.85976,-0.73165 l -1.3e-4,-0.72761 h -5.55622 c -5.50417,0 -5.55621,0.005 -5.55611,0.56725 7e-5,0.41235 0.34238,0.73745 1.25361,1.19062 l 1.25353,0.62338 3.94473,9.392707 c 2.40308,5.72191 3.99198,9.85877 4.06564,10.58526 0.14749,1.45484 -0.27297,3.12439 -1.02887,4.08537 -0.55672,0.70774 -0.59162,0.71447 -2.76713,0.53325 -2.20296,-0.18351 -2.20342,-0.18341 -3.00715,0.62032 -1.04162,1.04162 -1.08271,2.1743 -0.10671,2.94201 0.99317,0.78123 2.58168,0.71576 4.34865,-0.17923 z m -14.14577,-9.45244 c 3.07419,-0.91293 4.93644,-3.34298 4.95285,-6.46297 0.0185,-3.51771 -1.69728,-5.32136 -6.5685,-6.904897 -3.67913,-1.19602 -4.6302,-1.97144 -4.6302,-3.77507 0,-1.35436 0.86376,-2.20907 2.47693,-2.45098 1.44972,-0.2174 2.37364,-0.0211 3.42537,0.72781 0.89614,0.63811 2.29978,2.73362 2.29978,3.43337 0,0.35722 0.20599,0.47737 0.81844,0.47737 h 0.81844 l -0.18438,-2.57969 c -0.10141,-1.41883 -0.32088,-2.72297 -0.48771,-2.89809 -0.50903,-0.53432 -3.34875,-1.13681 -5.35813,-1.13681 -5.30006,0 -8.557671,2.70071 -8.257821,6.84612 0.21003,2.903627 1.781051,4.403707 6.133901,5.856907 3.94635,1.3175 5.10088,2.12643 5.36592,3.75966 0.335,2.06436 -1.37695,3.643 -3.95243,3.64466 -2.66152,0.002 -4.54514,-1.41538 -5.75215,-4.3275 -0.512001,-1.2353 -0.729471,-1.49235 -1.262601,-1.49235 h -0.64407 l 0.1724,2.31511 c 0.32152,4.31775 0.28075,4.21091 1.799411,4.71533 2.87749,0.95575 6.15045,1.04912 8.83455,0.25202 z"
       id="path847"
       sodipodi:nodetypes="cccccccccssssssssssssscssssscssssssssssssscsssssscssscsssccsssssssssssssscccsssssssssssssssscssssscsssssssscscscsssssssscsscsssssssscsssssscscsscssssssssssssscscssscsccsssssssssscsssssssssscssssscccsssssscsssssssssssscscscssscssssssssssssssscsssssscsscsss" />
  </g>
</svg>
