<?xml version="1.0" encoding="UTF-8" standalone="no"?>
<svg
   xmlns:dc="http://purl.org/dc/elements/1.1/"
   xmlns:cc="http://creativecommons.org/ns#"
   xmlns:rdf="http://www.w3.org/1999/02/22-rdf-syntax-ns#"
   xmlns:svg="http://www.w3.org/2000/svg"
   xmlns="http://www.w3.org/2000/svg"
   xmlns:sodipodi="http://sodipodi.sourceforge.net/DTD/sodipodi-0.dtd"
   xmlns:inkscape="http://www.inkscape.org/namespaces/inkscape"
   width="10.31875mm"
   height="9.7895832mm"
   viewBox="0 0 10.318751 9.7895832"
   version="1.1"
   id="svg8"
   inkscape:version="1.0.1 (3bc2e813f5, 2020-09-07)"
   sodipodi:docname="twitter.svg">
  <defs
     id="defs2">
    <style
       type="text/css"
       id="style855"><![CDATA[
    .fil0 {fill:#04D4AC;fill-rule:nonzero}
    .fil1 {fill:white;fill-rule:nonzero}
   ]]></style>
  </defs>
  <sodipodi:namedview
     id="base"
     pagecolor="#ffffff"
     bordercolor="#666666"
     borderopacity="1.0"
     inkscape:pageopacity="0.0"
     inkscape:pageshadow="2"
     inkscape:zoom="7.9195959"
     inkscape:cx="38.80856"
     inkscape:cy="19.091963"
     inkscape:document-units="mm"
     inkscape:current-layer="layer1"
     inkscape:document-rotation="0"
     showgrid="false"
     inkscape:window-width="1267"
     inkscape:window-height="967"
     inkscape:window-x="1331"
     inkscape:window-y="176"
     inkscape:window-maximized="0"
     inkscape:snap-nodes="false" />
  <metadata
     id="metadata5">
    <rdf:RDF>
      <cc:Work
         rdf:about="">
        <dc:format>image/svg+xml</dc:format>
        <dc:type
           rdf:resource="http://purl.org/dc/dcmitype/StillImage" />
        <dc:title />
      </cc:Work>
    </rdf:RDF>
  </metadata>
  <g
     inkscape:label="Layer 1"
     inkscape:groupmode="layer"
     id="layer1"
     transform="translate(-123.57608,-154.60783)">
    <path
       fill="#1d9bf0"
       d="m 131.61515,158.26599 c 0.004,0.0638 0.004,0.12751 0.004,0.19186 0,1.96065 -1.49261,4.2219 -4.2219,4.2219 v -8.7e-4 c -0.80624,8.7e-4 -1.59573,-0.22977 -2.27445,-0.66522 0.11723,0.014 0.23505,0.0212 0.35316,0.0215 0.66815,5.6e-4 1.31721,-0.2236 1.84284,-0.63642 -0.63494,-0.012 -1.19173,-0.42603 -1.38623,-1.03042 0.22241,0.0429 0.4516,0.0341 0.66991,-0.0256 -0.69225,-0.13987 -1.19027,-0.74807 -1.19027,-1.45442 v -0.0187 c 0.20626,0.11487 0.4372,0.17864 0.67343,0.1857 -0.65198,-0.43574 -0.85296,-1.3031 -0.45924,-1.98124 0.75336,0.927 1.86488,1.49055 3.05809,1.5502 -0.1196,-0.51536 0.0437,-1.0554 0.42925,-1.41769 0.59763,-0.56177 1.53757,-0.53298 2.09935,0.0644 0.33231,-0.0655 0.65081,-0.18745 0.94228,-0.36021 -0.11075,0.34347 -0.34259,0.63524 -0.65229,0.82064 0.29413,-0.0346 0.58149,-0.11339 0.85209,-0.23359 -0.1992,0.29852 -0.45014,0.55854 -0.74043,0.76863 z"
       id="path858"
       style="stroke-width:0.0293819" />
  </g>
</svg>
