<?xml version="1.0" encoding="UTF-8" standalone="no"?>
<svg
   xmlns:dc="http://purl.org/dc/elements/1.1/"
   xmlns:cc="http://creativecommons.org/ns#"
   xmlns:rdf="http://www.w3.org/1999/02/22-rdf-syntax-ns#"
   xmlns:svg="http://www.w3.org/2000/svg"
   xmlns="http://www.w3.org/2000/svg"
   xmlns:sodipodi="http://sodipodi.sourceforge.net/DTD/sodipodi-0.dtd"
   xmlns:inkscape="http://www.inkscape.org/namespaces/inkscape"
   width="10.31875mm"
   height="9.7895832mm"
   viewBox="0 0 10.318751 9.7895832"
   version="1.1"
   id="svg8"
   inkscape:version="1.0.1 (3bc2e813f5, 2020-09-07)"
   sodipodi:docname="zenodo.svg">
  <defs
     id="defs2" />
  <sodipodi:namedview
     id="base"
     pagecolor="#ffffff"
     bordercolor="#666666"
     borderopacity="1.0"
     inkscape:pageopacity="0.0"
     inkscape:pageshadow="2"
     inkscape:zoom="11.2"
     inkscape:cx="20.330141"
     inkscape:cy="16.720231"
     inkscape:document-units="mm"
     inkscape:current-layer="layer1"
     inkscape:document-rotation="0"
     showgrid="false"
     inkscape:window-width="1267"
     inkscape:window-height="967"
     inkscape:window-x="1331"
     inkscape:window-y="176"
     inkscape:window-maximized="0" />
  <metadata
     id="metadata5">
    <rdf:RDF>
      <cc:Work
         rdf:about="">
        <dc:format>image/svg+xml</dc:format>
        <dc:type
           rdf:resource="http://purl.org/dc/dcmitype/StillImage" />
        <dc:title></dc:title>
      </cc:Work>
    </rdf:RDF>
  </metadata>
  <g
     inkscape:label="Layer 1"
     inkscape:groupmode="layer"
     id="layer1"
     transform="translate(-123.57608,-154.60783)">
    <path
       d="m 124.56749,157.9582 v 3.14408 h 8.64621 v -3.14408 z m 6.11214,0.39301 c 0.0286,0 0.054,0.0102 0.0759,0.0315 0.022,0.021 0.033,0.0468 0.033,0.0773 v 0.467 c -0.0383,0.054 -0.0476,0.15047 -0.0493,0.21501 0.0119,-0.038 0.0383,-0.0932 0.0493,-0.11116 0.008,-0.0153 0.0247,-0.0386 0.039,-0.0566 0.0135,-0.0153 0.0264,-0.0315 0.0413,-0.0459 0.0241,-0.0236 0.0498,-0.0444 0.0773,-0.0629 0.0273,-0.0183 0.0564,-0.0341 0.0874,-0.0474 0.0618,-0.0266 0.12929,-0.0402 0.20196,-0.0402 0.0705,0 0.13759,0.0136 0.20057,0.0402 0.063,0.0268 0.11776,0.0635 0.16453,0.11031 0.0468,0.0469 0.084,0.10167 0.11183,0.1647 0.0274,0.063 0.0415,0.12996 0.0415,0.20049 v 0.42686 c 0,0.0707 -0.0136,0.13742 -0.04,0.20057 -0.0268,0.0629 -0.0642,0.11793 -0.11183,0.1647 -0.0478,0.0468 -0.10303,0.0834 -0.16606,0.11014 -0.063,0.0269 -0.12996,0.0402 -0.20049,0.0402 -0.0707,0 -0.13741,-0.0136 -0.2005,-0.0402 -0.063,-0.0268 -0.11793,-0.0634 -0.1647,-0.11014 -0.0468,-0.0468 -0.084,-0.10167 -0.11166,-0.1647 -0.002,-0.005 -0.003,-0.0102 -0.005,-0.0136 -0.002,0.005 -0.003,0.0102 -0.005,0.0136 -0.0278,0.0629 -0.0651,0.11793 -0.112,0.1647 -0.0468,0.0468 -0.1015,0.0834 -0.16436,0.11014 -0.063,0.0269 -0.13014,0.0402 -0.20064,0.0402 -0.0725,0 -0.14013,-0.0136 -0.20196,-0.0402 -0.0622,-0.0268 -0.11692,-0.0634 -0.1647,-0.11014 -0.0478,-0.0468 -0.0851,-0.10167 -0.11167,-0.1647 -0.002,-0.003 -0.003,-0.007 -0.005,-0.0119 -0.001,0.003 -0.003,0.007 -0.003,0.0119 -0.0268,0.0629 -0.0642,0.11793 -0.11183,0.1647 -0.0478,0.0468 -0.10319,0.0834 -0.16606,0.11014 -0.063,0.0269 -0.12996,0.0402 -0.2005,0.0402 -0.0707,0 -0.13759,-0.0136 -0.20049,-0.0402 -0.063,-0.0268 -0.11793,-0.0634 -0.1647,-0.11014 -0.032,-0.032 -0.0595,-0.0685 -0.0825,-0.1081 v 0.14945 c 0,0.0307 -0.0119,0.0564 -0.0327,0.0774 -0.0222,0.0212 -0.0473,0.0315 -0.0759,0.0315 -0.0307,0 -0.0564,-0.0102 -0.0774,-0.0315 -0.021,-0.0208 -0.0313,-0.0468 -0.0313,-0.0774 v -0.83347 c 0,-0.04 -0.008,-0.0783 -0.0244,-0.11437 -0.0169,-0.0363 -0.0376,-0.0685 -0.0646,-0.0961 -0.0266,-0.0276 -0.0588,-0.049 -0.0959,-0.0644 -0.0371,-0.0152 -0.0759,-0.0229 -0.11607,-0.0229 -0.0417,0 -0.081,0.007 -0.11708,0.0229 -0.0364,0.0153 -0.0685,0.0368 -0.0959,0.0644 -0.0278,0.0276 -0.0493,0.0598 -0.0647,0.0961 -0.0152,0.0363 -0.0229,0.0746 -0.0229,0.11437 v 0.32954 h -0.21769 -0.0515 -0.69619 v 0.0973 c 0,0.0402 0.008,0.0783 0.0242,0.11454 0.0169,0.0363 0.0376,0.0683 0.0644,0.0959 0.0268,0.0276 0.059,0.0491 0.0959,0.0644 0.0374,0.0153 0.0759,0.0227 0.11607,0.0227 0.0612,0 0.1159,-0.0153 0.16453,-0.0471 0.0488,-0.0315 0.0857,-0.0739 0.11048,-0.12759 l 0.0178,-0.0366 c 0.007,-0.0208 0.0203,-0.0376 0.0385,-0.05 0.018,-0.0119 0.0388,-0.0186 0.0615,-0.0186 h 0.27166 c 0,0 -4.1e-4,4.6e-4 -4.1e-4,5.3e-4 h 4.1e-4 v 0.38826 c 0,0.0307 -0.0102,0.0564 -0.0329,0.0773 -0.022,0.0212 -0.0471,0.0315 -0.0759,0.0315 -0.0305,0 -0.0564,-0.0102 -0.0773,-0.0315 -0.0213,-0.0208 -0.0317,-0.0468 -0.0317,-0.0773 v -0.14945 c -0.039,0.0688 -0.0927,0.12624 -0.16046,0.17248 -0.0841,0.0574 -0.17938,0.0859 -0.2864,0.0859 -0.0708,0 -0.13742,-0.0136 -0.20057,-0.04 -0.0449,-0.019 -0.0856,-0.0434 -0.12217,-0.0727 -0.003,0.0574 -0.052,0.10268 -0.11048,0.10268 h -0.82715 c -0.0612,0 -0.11099,-0.0497 -0.11099,-0.11099 v -0.0724 c 0,-0.0237 0.008,-0.0469 0.0219,-0.0661 l 0.71646,-0.96463 h -0.61076 c -0.0612,0 -0.11082,-0.0496 -0.11082,-0.11082 0,-0.0612 0.0496,-0.11098 0.11082,-0.11098 h 0.77719 c 0.0612,0 0.11081,0.0496 0.11081,0.11098 v 0.0173 c 0.0451,-0.0419 0.0961,-0.0756 0.15369,-0.10032 0.0619,-0.0266 0.12912,-0.0401 0.20188,-0.0401 0.0705,0 0.13758,0.0135 0.20058,0.0401 0.0629,0.0268 0.11777,0.0635 0.16436,0.11014 0.0468,0.0469 0.0842,0.10167 0.11184,0.1647 0.002,0.003 0.003,0.008 0.005,0.0119 0.002,-0.003 0.003,-0.008 0.005,-0.0119 0.0268,-0.0629 0.064,-0.11776 0.11201,-0.1647 0.0474,-0.0466 0.10251,-0.0835 0.16453,-0.11014 0.062,-0.0266 0.12945,-0.0401 0.20187,-0.0401 0.0708,0 0.13759,0.0135 0.20057,0.0401 0.063,0.0268 0.11794,0.0635 0.16487,0.11014 0.0468,0.0469 0.0841,0.10167 0.11167,0.1647 0.002,0.005 0.003,0.008 0.005,0.0136 0.002,-0.005 0.003,-0.008 0.005,-0.0136 0.0266,-0.0629 0.064,-0.11776 0.11167,-0.1647 0.0476,-0.0466 0.10251,-0.0835 0.1647,-0.11014 0.0618,-0.0266 0.12928,-0.0401 0.20194,-0.0401 0.0705,0 0.13759,0.0135 0.20057,0.0401 0.063,0.0268 0.11777,0.0635 0.16453,0.11014 0.0468,0.0469 0.0842,0.10167 0.11184,0.1647 0.002,0.005 0.003,0.0102 0.005,0.0136 0.002,-0.005 0.003,-0.0102 0.005,-0.0136 0.0274,-0.0629 0.0649,-0.11776 0.1115,-0.1647 0.0469,-0.0466 0.10183,-0.0835 0.16487,-0.11014 0.063,-0.0266 0.12979,-0.0401 0.20042,-0.0401 0.0554,0 0.10844,0.008 0.15893,0.0257 0.0505,0.0173 0.0978,0.0412 0.14166,0.0717 v -0.41543 c 0,-0.0305 0.0102,-0.0563 0.0315,-0.0773 0.0212,-0.021 0.0468,-0.0315 0.0774,-0.0315 z m -3.30633,0.64448 c -0.042,0 -0.0813,0.007 -0.1176,0.0229 -0.0363,0.0153 -0.0684,0.0368 -0.0957,0.0644 -0.0278,0.0276 -0.0493,0.0598 -0.0646,0.0961 -0.0152,0.0363 -0.0229,0.0746 -0.0229,0.11438 v 0.11166 h 0.60133 v -0.11166 c 0,-0.04 -0.008,-0.0783 -0.0242,-0.11438 -0.017,-0.0363 -0.0376,-0.0685 -0.0644,-0.0961 -0.0266,-0.0276 -0.0586,-0.049 -0.0959,-0.0644 -0.0373,-0.0153 -0.0757,-0.0229 -0.1159,-0.0229 z m 1.93149,0 c -0.042,0 -0.0812,0.008 -0.11742,0.0229 -0.0363,0.0153 -0.0685,0.0368 -0.0959,0.0646 -0.0278,0.0276 -0.0491,0.0598 -0.0644,0.0961 -0.0153,0.0363 -0.0229,0.0746 -0.0229,0.11438 v 0.42686 c 0,0.0402 0.008,0.0783 0.0242,0.11455 0.0169,0.0363 0.0376,0.0683 0.0644,0.0959 0.0268,0.0276 0.0588,0.0491 0.0959,0.0644 0.0375,0.0153 0.0759,0.0227 0.11607,0.0227 0.0419,0 0.0812,-0.007 0.11726,-0.0227 0.0363,-0.0153 0.0684,-0.0368 0.0961,-0.0644 0.0276,-0.0276 0.049,-0.0596 0.0644,-0.0959 0.0152,-0.0363 0.0229,-0.0744 0.0229,-0.11455 v -0.42686 c 0,-0.04 -0.008,-0.0783 -0.0242,-0.11438 -0.017,-0.0363 -0.0378,-0.0683 -0.0644,-0.0961 -0.0266,-0.0276 -0.0586,-0.049 -0.0961,-0.0646 -0.0371,-0.0153 -0.0757,-0.0229 -0.1159,-0.0229 z m 0.96533,0 c -0.0402,0 -0.0788,0.008 -0.11607,0.0229 -0.0371,0.0153 -0.0691,0.0368 -0.0959,0.0646 -0.0268,0.0276 -0.0481,0.0598 -0.0644,0.0961 -0.0153,0.0363 -0.0244,0.0746 -0.0244,0.11438 v 0.42686 c 0,0.0402 0.007,0.0783 0.0229,0.11455 0.0152,0.0363 0.0368,0.0683 0.0647,0.0959 0.0274,0.0276 0.0595,0.0491 0.0957,0.0644 0.0363,0.0153 0.0754,0.0227 0.11743,0.0227 0.04,0 0.0788,-0.007 0.1159,-0.0227 0.0374,-0.0153 0.0693,-0.0368 0.0961,-0.0644 0.0268,-0.0276 0.0483,-0.0596 0.0644,-0.0959 0.017,-0.0363 0.0242,-0.0744 0.0242,-0.11455 v -0.42686 c 0,-0.04 -0.007,-0.0783 -0.0229,-0.11438 -0.0153,-0.0363 -0.0368,-0.0683 -0.0644,-0.0961 -0.0276,-0.0276 -0.0597,-0.049 -0.0961,-0.0646 -0.0363,-0.0153 -0.0754,-0.0229 -0.11742,-0.0229 z m 0.96534,0 c -0.042,0 -0.0812,0.008 -0.11743,0.0229 -0.0363,0.0153 -0.0683,0.0368 -0.0959,0.0646 -0.0278,0.0276 -0.0491,0.0598 -0.0644,0.0961 -0.0153,0.0363 -0.0229,0.0746 -0.0229,0.11438 v 0.42686 c 0,0.0402 0.008,0.0783 0.0244,0.11455 0.017,0.0363 0.0378,0.0683 0.0646,0.0959 0.0268,0.0276 0.0588,0.0491 0.0957,0.0644 0.0375,0.0153 0.0761,0.0227 0.11607,0.0227 0.0419,0 0.0812,-0.007 0.11742,-0.0227 0.0361,-0.0153 0.0683,-0.0368 0.0961,-0.0644 0.0276,-0.0276 0.049,-0.0596 0.0644,-0.0959 0.0153,-0.0363 0.0229,-0.0744 0.0229,-0.11455 h -1.2e-4 v -0.42686 c 0,-0.04 -0.008,-0.0783 -0.0242,-0.11438 -0.0169,-0.0363 -0.0378,-0.0683 -0.0646,-0.0961 -0.0266,-0.0276 -0.0586,-0.049 -0.0959,-0.0646 -0.0371,-0.0153 -0.0759,-0.0229 -0.1159,-0.0229 z m -4.37585,0.22743 -0.57991,0.78104 h 0.66036 c 6.3e-4,0 10e-4,10e-5 0.002,10e-5 -0.0171,-0.0259 -0.0325,-0.0537 -0.0454,-0.0832 -0.0278,-0.0632 -0.0415,-0.12996 -0.0415,-0.20057 v -0.42688 c 0,-0.0239 0.002,-0.0473 0.005,-0.0703 z"
       style="stroke:none;stroke-width:0.00101323;stop-color:#000000;fill:#3b3b3b;fill-opacity:0.58999997"
       id="rect846" />
  </g>
</svg>
